# xmcd
#
# Track frame offsets:
#	150
#	15811
#	32898
#	45040
#	67745
#	85490
#	96507
#	108598
#	132893
#	147739
#	159718
#
# Disc length: 2403 seconds
#
# Revision: 1
# Processed by: cddbd v1.5.2PL0 Copyright (c) Steve Scherf et al.
# Submitted via: audiograbber 1.83.01
#
DISCID=8c09610b
DTITLE=Melody Masters Quartet - Faith
DYEAR=1900
DGENRE=Southern Gospel
TTITLE0=Faith Now
TTITLE1=Lifeboat
TTITLE2=On That Heavenly Ride
TTITLE3=The Glory Goes To You
TTITLE4=Rolled Away
TTITLE5=Hold On
TTITLE6=He Bought Me Back
TTITLE7=Come And Follow Me
TTITLE8=A Land I'm Comming To
TTITLE9=Sow The Seed
TTITLE10=The Marriage Supper
EXTD=
EXTT0=
EXTT1=
EXTT2=
EXTT3=
EXTT4=
EXTT5=
EXTT6=
EXTT7=
EXTT8=
EXTT9=
EXTT10=
PLAYORDER=
